<?xml version="1.0" standalone="no"?><!DOCTYPE svg PUBLIC "-//W3C//DTD SVG 1.1//EN" "http://www.w3.org/Graphics/SVG/1.1/DTD/svg11.dtd"><svg t="1706718372278" class="icon" viewBox="0 0 1069 1024" version="1.1" xmlns="http://www.w3.org/2000/svg" p-id="2667" xmlns:xlink="http://www.w3.org/1999/xlink" width="208.7890625" height="200"><path d="M21.743285 748.186432v86.973139A37.833316 37.833316 0 0 0 55.33666 869.731394h965.945429c16.524896 0 26.418091-17.068479 26.418091-33.702092v-87.84287z" fill="#FFFFFF" p-id="2668"></path><path d="M1021.282089 891.474679H55.33666A59.033018 59.033018 0 0 1 0 834.724705v-108.716424h1069.443465v110.129738c0 27.287822-18.046926 55.33666-48.161376 55.33666zM43.48657 769.929717v65.229854A17.720777 17.720777 0 0 0 55.33666 847.988109h965.945429c1.304597 0 4.674806-5.218388 4.674807-11.958807v-66.099585z" fill="#282D33" p-id="2669"></path><path d="M420.623845 870.492409c-1.739463 21.743285 2.065612 69.361079-2.500477 92.73511-4.239941 21.743285-7.175284 21.743285-18.590509 28.374987-6.414269 3.478926-17.177195 8.479881-26.309375 12.393672z" fill="#FFFFFF" p-id="2670"></path><path d="M381.920798 1023.891284l-17.285911-39.898928c10.871642-4.56609 19.677673-8.80603 24.461195-11.415225l1.413314-0.869731a26.635524 26.635524 0 0 0 3.587642-1.956896 92.626393 92.626393 0 0 0 2.717911-10.871642 354.632976 354.632976 0 0 0 1.739462-54.358212v-36.420002l43.48657 3.587642c-0.652299 7.392717 0 19.46024 0 32.614927a342.891602 342.891602 0 0 1-2.609194 63.272959c-5.218388 25.983225-11.523941 33.375942-27.940121 42.399405l-1.413314 0.761015c-7.827583 4.457373-21.199703 10.110627-28.157554 13.154688z" fill="#282D33" p-id="2671"></path><path d="M695.785115 1004.104894c-9.13218-3.913791-20.112538-8.914747-26.635524-12.502388-10.871642-6.305553-13.589553-6.957851-17.720777-28.374987-4.674806-23.374031-0.869731-70.013377-2.609194-91.539229z" fill="#FFFFFF" p-id="2672"></path><path d="M686.544219 1024c-8.80603-3.805075-20.764837-9.240896-28.26627-13.263404h-1.087164C639.361291 1000.191103 634.469052 992.68967 629.468096 967.576176a334.085572 334.085572 0 0 1-2.609194-62.077078v-31.853913l43.48657-3.587642c0.761015 9.458329 0.652299 22.395583 0 36.093853a330.280497 330.280497 0 0 0 1.848179 53.053615 106.868245 106.868245 0 0 0 2.609194 10.871643l3.478926 1.956895c5.435821 2.935343 14.568001 7.175284 25.657076 12.067523z" fill="#282D33" p-id="2673"></path><path d="M345.065931 1002.256715z" fill="#FFFFFF" p-id="2674"></path><path d="M345.065931 980.51343h379.529037v43.48657H345.065931z" fill="#282D33" p-id="2675"></path><path d="M63.707825 120.783947H49.792122A28.157554 28.157554 0 0 0 21.743285 148.832785v600.005945h1025.630746V148.832785a28.157554 28.157554 0 0 0-28.048837-28.048838H63.707825z" fill="#FFFFFF" p-id="2676"></path><path d="M1069.117316 770.582015H0V148.832785a49.900839 49.900839 0 0 1 49.792122-49.792123h13.915703v43.48657H49.792122a6.305553 6.305553 0 0 0-6.305552 6.305553v578.26266h982.144176V148.832785a6.305553 6.305553 0 0 0-6.305552-6.305553h-13.589553v-43.48657h13.589553a49.792122 49.792122 0 0 1 49.792122 49.792123z" fill="#282D33" p-id="2677"></path><path d="M101.86729 58.489436h865.27402v610.877588H101.86729z" fill="#34CA9D" p-id="2678"></path><path d="M474.438475 21.743285h-315.27763v586.090243h315.27763a61.642213 61.642213 0 0 1 61.750929 61.642213V83.385497A61.642213 61.642213 0 0 0 474.438475 21.743285z" fill="#FFFFFF" p-id="2679"></path><path d="M557.932689 669.475741h-43.486569a39.898928 39.898928 0 0 0-40.007645-39.898928h-337.020915V0h337.020915a83.494214 83.494214 0 0 1 83.494214 83.385497z m-377.028559-83.385498h293.534345a83.711647 83.711647 0 0 1 40.007645 10.110628V83.385497A40.007644 40.007644 0 0 0 474.438475 43.48657h-293.534345z" fill="#282D33" p-id="2680"></path><path d="M599.57108 21.743285h315.27763v586.090243h-315.27763a61.642213 61.642213 0 0 0-61.750929 61.642213V83.385497A61.750929 61.750929 0 0 1 599.57108 21.743285z" fill="#FFFFFF" p-id="2681"></path><path d="M559.563436 669.475741h-43.48657V83.385497A83.60293 83.60293 0 0 1 599.57108 0h337.020915v629.576813h-337.020915a39.898928 39.898928 0 0 0-40.007644 39.898928zM599.57108 43.48657a40.007644 40.007644 0 0 0-40.007644 39.898927v512.815374a84.363945 84.363945 0 0 1 40.007644-10.110628h293.534345V43.48657z" fill="#282D33" p-id="2682"></path><path d="M221.890222 113.065081z" fill="#FFFFFF" p-id="2683"></path><path d="M221.890222 91.321796h146.767173v43.48657h-146.767173z" fill="#282D33" p-id="2684"></path><path d="M221.890222 192.971653z" fill="#FFFFFF" p-id="2685"></path><path d="M221.890222 171.228368h247.221149v43.48657H221.890222z" fill="#282D33" p-id="2686"></path><path d="M221.890222 271.791061z" fill="#FFFFFF" p-id="2687"></path><path d="M221.890222 249.830343h247.221149v43.48657H221.890222z" fill="#282D33" p-id="2688"></path><path d="M221.890222 350.175603z" fill="#FFFFFF" p-id="2689"></path><path d="M221.890222 328.432318h247.221149v43.486569H221.890222z" fill="#282D33" p-id="2690"></path><path d="M221.890222 428.886294z" fill="#FFFFFF" p-id="2691"></path><path d="M221.890222 407.143009h247.221149v43.48657H221.890222z" fill="#282D33" p-id="2692"></path><path d="M221.890222 507.488268z" fill="#FFFFFF" p-id="2693"></path><path d="M221.890222 485.744984h247.221149v43.486569H221.890222z" fill="#282D33" p-id="2694"></path><path d="M595.657288 192.971653z" fill="#FFFFFF" p-id="2695"></path><path d="M595.657288 171.228368h247.221149v43.48657H595.657288z" fill="#282D33" p-id="2696"></path><path d="M595.657288 271.791061z" fill="#FFFFFF" p-id="2697"></path><path d="M595.657288 249.830343h247.221149v43.48657H595.657288z" fill="#282D33" p-id="2698"></path><path d="M595.657288 350.175603z" fill="#FFFFFF" p-id="2699"></path><path d="M595.657288 328.432318h247.221149v43.486569H595.657288z" fill="#282D33" p-id="2700"></path><path d="M595.657288 428.886294z" fill="#FFFFFF" p-id="2701"></path><path d="M595.657288 407.143009h247.221149v43.48657H595.657288z" fill="#282D33" p-id="2702"></path><path d="M595.657288 507.488268z" fill="#FFFFFF" p-id="2703"></path><path d="M595.657288 485.744984h247.221149v43.486569H595.657288z" fill="#282D33" p-id="2704"></path></svg>