<?xml version="1.0" standalone="no"?><!DOCTYPE svg PUBLIC "-//W3C//DTD SVG 1.1//EN" "http://www.w3.org/Graphics/SVG/1.1/DTD/svg11.dtd"><svg t="1706475239147" class="icon" viewBox="0 0 1024 1024" version="1.1" xmlns="http://www.w3.org/2000/svg" p-id="1840" xmlns:xlink="http://www.w3.org/1999/xlink" width="200" height="200"><path d="M1018.881024 441.856c0-0.512 0-1.024-0.3072-1.4848l-102.4-216.7296a53.1968 53.1968 0 0 0-18.8416-21.8624 49.152 49.152 0 0 0-26.9312-8.0896h-204.8c0-28.7232-10.752-56.32-30.0032-76.5952A99.6352 99.6352 0 0 0 563.201024 85.3504H102.401024c-27.136 0-53.248 11.4176-72.3968 31.744A111.616 111.616 0 0 0 0.001024 193.6896v487.6288c0 14.336 5.376 28.16 15.0016 38.2976 9.5744 10.1888 22.6304 15.872 36.1984 15.872h15.36c-1.536 8.96-2.4064 18.0224-2.6112 27.136 0 46.6432 17.5104 91.4432 48.7424 124.4672a161.8944 161.8944 0 0 0 117.6576 51.5584c44.1344 0 86.4768-18.5344 117.6576-51.5584 31.232-33.024 48.7424-77.824 48.7424-124.5184a181.7088 181.7088 0 0 0-2.5088-27.0848h235.52c-1.536 8.96-2.4064 18.0224-2.6112 27.136 0 46.6432 17.5104 91.4432 48.7424 124.4672a161.8944 161.8944 0 0 0 117.6576 51.5584c44.1344 0 86.4768-18.5344 117.6576-51.5584 31.232-33.024 48.7424-77.824 48.7424-124.5184a181.9136 181.9136 0 0 0-2.5088-27.0848h15.36c13.568 0 26.624-5.6832 36.1984-15.872a55.808 55.808 0 0 0 15.0016-38.2976V464.5888a56.2176 56.2176 0 0 0-5.12-22.7328zM838.759424 302.08l51.2 108.3392H665.601024V302.0288h173.1584zM230.401024 830.2592c-12.6464 0-25.0368-3.9936-35.5328-11.4176a67.072 67.072 0 0 1-23.552-30.4128 71.3728 71.3728 0 0 1-3.6864-39.1168c2.4576-13.1072 8.5504-25.1904 17.5104-34.6624a62.976 62.976 0 0 1 32.768-18.5344c12.4416-2.6112 25.2928-1.28 36.9664 3.84 11.7248 5.12 21.7088 13.824 28.7232 24.9344a70.5536 70.5536 0 0 1-7.9872 85.504 62.3616 62.3616 0 0 1-45.2096 19.8656z m563.2 0c-12.6464 0-25.0368-3.9936-35.5328-11.4176a67.1232 67.1232 0 0 1-23.552-30.4128 71.424 71.424 0 0 1-3.6864-39.1168c2.4576-13.1072 8.5504-25.1904 17.5104-34.6624a62.976 62.976 0 0 1 32.768-18.5344c12.4416-2.6112 25.2928-1.28 36.9664 3.84 11.7248 5.12 21.7088 13.824 28.7232 24.9344a70.5024 70.5024 0 0 1-7.9872 85.504 62.3616 62.3616 0 0 1-45.2096 19.8656z" fill="#1F2A37" p-id="1841"></path></svg>