<?xml version="1.0" standalone="no"?><!DOCTYPE svg PUBLIC "-//W3C//DTD SVG 1.1//EN" "http://www.w3.org/Graphics/SVG/1.1/DTD/svg11.dtd"><svg t="1708025753537" class="icon" viewBox="0 0 1024 1024" version="1.1" xmlns="http://www.w3.org/2000/svg" p-id="4131" data-spm-anchor-id="a313x.search_index.0.i9.4ab83a81eZRcC2" xmlns:xlink="http://www.w3.org/1999/xlink" width="200" height="200"><path d="M185.856 840.704l199.168 97.792L509.952 814.08c84.48-84.48 84.48-221.696 0-306.688l-40.448-40.448c-84.48-84.48-221.696-84.48-306.688 0L46.592 583.168l79.36 186.368 59.904 71.168z" fill="#f6ef37" p-id="4132" data-spm-anchor-id="a313x.search_index.0.i7.4ab83a81eZRcC2" class=""></path><path d="M744.96 496.128c-22.528-14.848-52.224 4.096-53.76 5.12l-1.024 0.512c-0.512 0.512-7.68 4.608-17.408 10.24-26.112 15.36-70.144 41.472-83.456 48.64-10.24 5.632-25.088 0.512-30.208-4.096l-1.024-1.024c-25.088-29.696-44.032-57.344-55.808-82.944-12.8-28.16 1.536-41.984 5.12-44.032l1.024-0.512c6.656-4.608 91.648-54.784 114.176-66.56 20.48-10.24 29.696-18.944 32.256-30.208 2.048-8.192 0-16.384-6.144-24.576-14.848-20.992-129.536-62.976-236.032-0.512-119.808 70.144-116.224 185.856-115.2 223.744v7.68c0 10.752-4.608 23.552-12.8 35.84l-1.024 1.024-16.384 16.896c-3.072 3.072-5.12 7.168-5.12 12.288 0 4.608 1.536 8.704 5.12 12.288 6.656 6.656 17.408 6.656 24.576-0.512l17.408-17.92c2.048-2.56 22.016-28.16 22.016-59.392l-0.512-8.704c-1.024-36.352-4.608-133.632 98.304-194.048 73.728-43.008 144.896-26.112 172.544-16.384l17.92 6.144-16.384 8.704c-28.16 14.848-111.616 65.024-114.176 66.56-15.36 10.24-38.912 41.472-17.92 87.04 13.824 29.696 34.304 60.416 62.976 93.184 8.704 10.24 43.008 26.112 71.68 10.24 14.336-7.68 60.928-35.328 86.016-49.664 9.216-5.632 15.872-9.216 16.896-10.24l1.024-1.024c1.536-1.024 3.584-2.048 6.144-3.072l10.752-3.584v11.264c0 2.048-0.512 4.096-0.512 6.656l-0.512 2.56c-5.12 30.208-30.208 129.536-158.72 151.04-39.936 6.656-72.704 3.072-98.304-0.512H465.92c-11.776-1.536-22.528-3.072-33.28-3.072-14.848 0-28.672 3.072-39.936 12.8-25.088 20.992-28.16 24.576-25.6 34.816 2.048 7.68 8.704 12.8 16.384 12.8 1.024 0 3.072-0.512 4.608-1.024 3.072-1.024 6.656-3.072 8.704-5.632l0.512-1.024c1.024-1.024 2.56-2.56 5.632-5.12 2.56-2.56 6.656-5.12 11.264-10.24 8.192-6.656 22.016-5.12 48.128-2.048 31.744 4.096 65.536 7.68 109.568 0.512 120.32-20.48 174.592-105.984 185.856-178.688 6.144-25.088 2.048-42.496-12.8-52.224z" fill="#2c2c2c" p-id="4133" data-spm-anchor-id="a313x.search_index.0.i10.4ab83a81eZRcC2" class="selected"></path><path d="M924.672 723.968c35.328-67.072 52.736-138.24 52.736-211.968 0-121.856-47.616-236.544-134.144-323.584C755.2 99.84 637.44 51.2 512 51.2 254.976 51.2 46.08 258.048 46.08 512s208.896 460.8 465.92 460.8c101.376 0 198.144-32.256 280.064-93.696l1.024-1.024c3.072-3.072 4.608-7.68 4.608-12.8 0-11.264-9.216-19.968-20.48-19.968-5.632 0-10.752 2.048-14.336 5.12l-3.072 2.56h-1.024c-72.192 51.712-157.696 79.36-246.784 79.36-232.96 0-422.4-187.392-422.4-417.792s189.44-417.792 422.4-417.792 422.4 187.392 422.4 417.792c0 69.632-15.872 135.168-47.616 195.072v1.024c0 0.512-0.512 1.024-0.512 1.536-0.512 1.536-0.512 2.56-0.512 4.096 0 11.264 9.216 19.968 20.48 19.968 7.68 0 14.848-4.608 18.432-12.288z" fill="#2c2c2c" p-id="4134" data-spm-anchor-id="a313x.search_index.0.i8.4ab83a81eZRcC2" class="selected"></path></svg>