<?xml version="1.0" standalone="no"?><!DOCTYPE svg PUBLIC "-//W3C//DTD SVG 1.1//EN" "http://www.w3.org/Graphics/SVG/1.1/DTD/svg11.dtd"><svg t="1708026124257" class="icon" viewBox="0 0 1063 1024" version="1.1" xmlns="http://www.w3.org/2000/svg" p-id="5618" xmlns:xlink="http://www.w3.org/1999/xlink" width="207.6171875" height="200"><path d="M726.000666 676.078536H382.338769c-72.583028 0-131.365058-58.78203-131.365059-131.365058V535.001664c0-41.914143 20.105158-81.442928 54.011315-106.148419l192.021298-139.884193c22.490516-16.356739 49.581364-25.216639 77.353744-25.216639h151.640599c72.583028 0 131.365058 58.78203 131.365058 131.365058v149.425624c0 72.753411-58.78203 131.535441-131.365058 131.535441z" fill="#F9F6E1" p-id="5619"></path><path d="M865.37371 761.610649H201.051581c-36.461897 0-66.449251-29.987354-66.449252-66.449251V213.319135c0-36.461897 29.987354-66.449251 66.449252-66.449251h664.492512c36.461897 0 66.449251 29.987354 66.449251 66.449251v481.67188c0 36.63228-29.816972 66.619634-66.619634 66.619634z m27.77238-82.294842V227.460899c0-17.890183-14.482529-32.372712-32.372712-32.372713H209.570715c-17.890183 0-32.372712 14.482529-32.372712 32.372713v451.854908c0 17.890183 14.482529 32.372712 32.372712 32.372712h651.202663c17.890183 0 32.372712-14.652912 32.372712-32.372712zM316.911814 811.703161h432.260898c17.890183 0 32.202329 14.482529 32.20233 32.20233 0 17.890183-14.482529 32.202329-32.20233 32.202329H316.911814c-17.890183 0-32.202329-14.482529-32.20233-32.202329 0-17.890183 14.652912-32.202329 32.20233-32.20233z m0 0" fill="#2c2c2c" p-id="5620" data-spm-anchor-id="a313x.search_index.0.i6.324d3a811lrZuy" class="selected"></path><path d="M734.008652 353.884859h64.915807v294.421297h-64.915807V353.884859zM572.485857 263.752413h64.915807v384.553743H572.485857V263.752413zM273.464226 534.14975h64.915807v113.815641h-64.915807v-113.815641z m137.839601-90.132446h64.915807v204.288852h-64.915807V444.017304z m0 0" fill="#FAAD19" p-id="5621"></path></svg>