<?xml version="1.0" standalone="no"?><!DOCTYPE svg PUBLIC "-//W3C//DTD SVG 1.1//EN" "http://www.w3.org/Graphics/SVG/1.1/DTD/svg11.dtd"><svg t="1708025110638" class="icon" viewBox="0 0 1024 1024" version="1.1" xmlns="http://www.w3.org/2000/svg" p-id="10344" xmlns:xlink="http://www.w3.org/1999/xlink" width="200" height="200"><path d="M522.3 518.6m-326.3 0a326.3 326.3 0 1 0 652.6 0 326.3 326.3 0 1 0-652.6 0Z" fill="#0EAA97" p-id="10345"></path><path d="M522.3 518.6m-317.5 0a317.5 317.5 0 1 0 635 0 317.5 317.5 0 1 0-635 0Z" fill="#078E7B" p-id="10346"></path><path d="M522.3 518.6m-284 0a284 284 0 1 0 568 0 284 284 0 1 0-568 0Z" fill="#09685A" p-id="10347"></path><path d="M522.3 518.6m-275.7 0a275.7 275.7 0 1 0 551.4 0 275.7 275.7 0 1 0-551.4 0Z" fill="#FFEC9C" p-id="10348"></path><path d="M522.3 353.4c44.1 0 85.7 17.2 116.9 48.4 31.2 31.2 48.4 72.7 48.4 116.9s-17.2 85.7-48.4 116.9C608 666.8 566.5 684 522.3 684s-85.7-17.2-116.9-48.4c-31.2-31.2-48.4-72.7-48.4-116.9s17.2-85.7 48.4-116.9 72.7-48.4 116.9-48.4m0-10c-96.8 0-175.3 78.5-175.3 175.3S425.5 694 522.3 694s175.3-78.5 175.3-175.3-78.5-175.3-175.3-175.3z" fill="#F2C05C" p-id="10349"></path><path d="M522.3 370.1c39.7 0 77 15.4 105 43.5s43.5 65.4 43.5 105-15.4 77-43.5 105-65.4 43.5-105 43.5-77-15.4-105-43.5-43.5-65.4-43.5-105 15.4-77 43.5-105 65.3-43.5 105-43.5m0-3c-83.7 0-151.5 67.8-151.5 151.5s67.8 151.5 151.5 151.5 151.5-67.8 151.5-151.5-67.9-151.5-151.5-151.5z" fill="#F2C05C" p-id="10350"></path><path d="M522.3 404.2c30.6 0 59.3 11.9 80.9 33.5 21.6 21.6 33.5 50.3 33.5 80.9s-11.9 59.3-33.5 80.9c-21.6 21.6-50.3 33.5-80.9 33.5s-59.3-11.9-80.9-33.5c-21.6-21.6-33.5-50.3-33.5-80.9s11.9-59.3 33.5-80.9c21.6-21.6 50.3-33.5 80.9-33.5m0-5c-65.9 0-119.4 53.5-119.4 119.4S456.3 638 522.3 638s119.4-53.5 119.4-119.4-53.5-119.4-119.4-119.4z" fill="#F2C05C" p-id="10351"></path><path d="M520.7 368.1h1v33.1h-1zM515.427 368.23l1-0.035 1.155 33.08-1 0.035zM510.166 368.59l0.998-0.07 2.31 33.02-0.998 0.07zM504.957 369.144l0.995-0.104 3.459 32.918-0.995 0.104zM499.737 369.828l0.99-0.14 4.607 32.78-0.99 0.139zM494.51 370.66l0.984-0.174 5.746 32.596-0.984 0.174zM489.355 371.754l0.978-0.208 6.881 32.375-0.978 0.208zM484.32 373.015l0.97-0.242 8.007 32.117-0.97 0.242zM479.265 374.4l0.961-0.276 9.123 31.82-0.962 0.275zM474.227 375.991l0.951-0.309 10.228 31.482-0.951 0.309zM469.283 377.776l0.94-0.342 11.32 31.104-0.94 0.342zM464.359 379.714l0.927-0.375 12.4 30.69-0.928 0.375zM459.56 381.72l0.914-0.406 13.462 30.237-0.914 0.407zM454.84 384.087l0.9-0.438 14.51 29.75-0.899 0.438zM450.225 386.464l0.883-0.47 15.54 29.228-0.883 0.47zM445.584 389.06l0.866-0.5L463 417.223l-0.866 0.5zM441.112 391.87l0.848-0.53 17.54 28.068-0.848 0.53zM436.71 394.697l0.83-0.56 18.51 27.44-0.83 0.56zM432.449 397.75l0.809-0.587 19.456 26.778-0.81 0.587zM428.34 400.989l0.788-0.616 20.38 26.083-0.788 0.616zM424.292 404.352l0.766-0.643 21.277 25.355-0.766 0.643zM420.352 407.858l0.743-0.669 22.147 24.597-0.743 0.669zM416.563 411.437l0.72-0.694 22.994 23.808-0.72 0.695zM412.85 415.25l0.695-0.72 23.809 22.995-0.695 0.72zM409.289 419.174l0.669-0.743 24.597 22.147-0.67 0.743zM405.887 423.123l0.643-0.766 25.354 21.277-0.642 0.766zM402.69 427.256l0.615-0.788 26.083 20.38-0.616 0.787zM399.503 431.454l0.588-0.81 26.778 19.457-0.588 0.809zM396.59 435.778l0.559-0.829 27.44 18.51-0.56 0.829zM393.677 440.263l0.53-0.848 28.07 17.54-0.53 0.847zM391.136 444.762l0.5-0.866 28.665 16.55-0.5 0.866zM388.601 449.463l0.47-0.883 29.224 15.54-0.47 0.883zM386.3 454.166l0.439-0.899 29.75 14.511-0.438 0.9zM384.047 458.872l0.407-0.914 30.237 13.462-0.407 0.913zM382.066 463.728l0.375-0.927 30.69 12.399-0.374 0.927zM380.259 468.621l0.342-0.94 31.104 11.32-0.342 0.94zM378.58 473.595l0.31-0.952 31.48 10.228-0.309 0.952zM377.112 478.608l0.276-0.962 31.819 9.123-0.276 0.96zM375.858 483.76l0.242-0.97 32.117 8.006-0.242 0.97zM374.65 488.892l0.208-0.978 32.375 6.881-0.207 0.979zM373.7 494.07l0.173-0.984 32.597 5.746-0.174 0.985zM372.957 499.296l0.139-0.99 32.779 4.607-0.14 0.99zM372.38 504.485l0.105-0.995 32.918 3.46-0.105 0.994zM372.052 509.748l0.07-0.997 33.02 2.309-0.07 0.997zM371.748 514.999l0.035-1 33.08 1.155-0.034 1zM371.7 519.2h33.1v1h-33.1zM371.899 524.489l33.08-1.163 0.035 1-33.08 1.162zM372.108 529.752l33.02-2.294 0.07 0.998-33.02 2.294zM372.609 534.93l32.918-3.458 0.104 0.994-32.918 3.46zM373.287 540.173l32.78-4.591 0.138 0.99-32.779 4.59zM374.181 545.396l32.597-5.757 0.174 0.985-32.597 5.756zM375.13 550.535l32.375-6.882 0.208 0.978-32.375 6.882zM376.394 555.63l32.117-8.014 0.242 0.97-32.117 8.014zM377.697 560.682l31.819-9.119 0.275 0.962-31.819 9.119zM379.26 565.744l31.485-10.215 0.309 0.951-31.485 10.215zM381.011 570.663l31.104-11.317 0.342 0.94-31.104 11.316zM382.953 575.602l30.687-12.406 0.375 0.927-30.687 12.406zM384.967 580.359l30.24-13.455 0.406 0.913-30.24 13.455zM387.277 585.201l29.747-14.517 0.439 0.898-29.747 14.518zM389.58 589.851l29.221-15.547 0.47 0.883-29.221 15.547zM392.145 594.462l28.658-16.56 0.5 0.865-28.658 16.56zM395 598.928l28.062-17.556 0.53 0.847-28.061 17.557zM397.885 603.325l27.427-18.533 0.56 0.829-27.427 18.533zM400.89 607.575l26.771-19.466 0.588 0.809-26.771 19.466zM403.995 611.833l26.08-20.383 0.616 0.788-26.08 20.383zM407.37 615.853l25.355-21.28 0.643 0.766-25.355 21.28zM410.802 619.798l24.587-22.16 0.67 0.742-24.587 22.16zM414.397 623.626l23.805-22.998 0.695 0.719-23.806 22.998zM418.18 627.302l22.998-23.805 0.719 0.695-22.998 23.805zM421.998 630.87l22.164-24.587 0.743 0.67-22.164 24.587zM426.043 634.31l21.28-25.355 0.766 0.643-21.28 25.354zM430.058 637.68l20.37-26.09 0.788 0.616-20.37 26.09zM434.314 640.785l19.466-26.771 0.808 0.588-19.466 26.771zM438.561 643.814l18.497-27.45 0.829 0.559-18.496 27.45zM442.963 646.533l17.53-28.075 0.848 0.53-17.53 28.075zM447.521 649.254l16.547-28.668 0.866 0.5-16.547 28.668zM452.183 651.882l15.523-29.234 0.884 0.469-15.524 29.234zM456.814 654.146l14.492-29.76 0.899 0.437-14.491 29.76zM461.625 656.415l13.455-30.244 0.913 0.407-13.455 30.243zM466.477 658.394l12.416-30.684 0.927 0.375-12.416 30.684zM471.299 660.34l11.317-31.104 0.94 0.342-11.318 31.104zM476.341 661.955l10.215-31.485 0.951 0.309-10.214 31.485zM481.338 663.453l9.12-31.819 0.96 0.276-9.119 31.819zM486.47 664.817l8.013-32.117 0.97 0.242-8.013 32.117zM491.541 665.974l6.852-32.382 0.978 0.207-6.852 32.382zM496.776 666.92l5.756-32.598 0.985 0.174-5.756 32.597zM501.941 667.789l4.591-32.779 0.99 0.139-4.59 32.779zM507.103 668.431l3.492-32.915 0.994 0.106-3.492 32.915zM512.375 668.836l2.328-33.017 0.997 0.07-2.327 33.017zM517.65 669.04l1.164-33.08 1 0.035-1.164 33.08zM522.9 636.1h1v33.1h-1zM526.93 636.035l0.999-0.035 1.155 33.08-1 0.035zM531.068 635.8l0.998-0.07 2.309 33.02-0.998 0.07zM535.132 635.35l0.994-0.104 3.46 32.918-0.995 0.105zM539.228 634.845l0.99-0.14 4.608 32.78-0.99 0.139zM543.209 634.264l0.985-0.174 5.746 32.597-0.985 0.173zM547.223 633.358l0.978-0.208 6.882 32.375-0.978 0.208zM551.292 632.42l0.97-0.243 8.007 32.117-0.97 0.242zM555.268 631.402l0.962-0.276 9.122 31.82-0.961 0.275zM559.135 630.207l0.951-0.309 10.228 31.482-0.951 0.309zM562.966 628.787l0.94-0.342 11.32 31.104-0.94 0.342zM566.844 627.297l0.927-0.374 12.399 30.69-0.927 0.375zM570.584 625.719l0.914-0.407 13.461 30.237-0.913 0.407zM574.308 623.88l0.899-0.438 14.51 29.75-0.898 0.439zM577.893 622.065l0.883-0.47 15.54 29.225-0.882 0.47zM581.496 620.062l0.866-0.5 16.55 28.664-0.866 0.5zM584.953 617.876l0.848-0.53 17.54 28.069-0.848 0.53zM588.444 615.69l0.829-0.56 18.51 27.44-0.83 0.56zM591.756 613.24l0.809-0.588 19.456 26.778-0.809 0.588zM594.992 610.847l0.788-0.616 20.377 26.083-0.788 0.616zM598.163 608.184l0.766-0.643 21.277 25.354-0.766 0.643zM623.4 630.1l-22.1-24.6 0.8-0.7 22.1 24.6zM604.26 602.665l0.719-0.695 22.995 23.809-0.72 0.695zM607.185 599.869l0.695-0.72 23.809 22.995-0.695 0.72zM634.5 618.9L610 596.8l0.6-0.8 24.6 22.2zM612.623 593.736l0.643-0.766 25.354 21.276-0.642 0.766zM615.122 590.469l0.616-0.788 26.083 20.376-0.616 0.788zM617.67 587.228l0.588-0.809 26.778 19.456-0.587 0.81zM619.977 583.795l0.56-0.83 27.44 18.51-0.56 0.83zM622.199 580.377l0.53-0.848 28.069 17.54-0.53 0.848zM624.268 576.792l0.5-0.866 28.665 16.55-0.5 0.866zM626.296 573.212l0.47-0.883 29.227 15.54-0.47 0.884zM628.1 569.554l0.439-0.899 29.75 14.511-0.438 0.9zM629.84 565.844l0.407-0.914 30.24 13.462-0.406 0.914zM631.44 562.095l0.375-0.927 30.69 12.4-0.374 0.927zM632.873 558.18l0.342-0.939 31.104 11.32-0.342 0.94zM634.113 554.327l0.31-0.951 31.48 10.228-0.308 0.95zM635.374 550.347l0.275-0.961 31.82 9.122-0.276 0.961zM636.323 546.472l0.242-0.97 32.116 8.007-0.241 0.97zM637.277 542.43l0.208-0.978 32.375 6.882-0.208 0.978zM638.036 538.426l0.174-0.985 32.597 5.746-0.174 0.985zM638.645 534.358l0.14-0.99 32.778 4.608-0.14 0.99zM639.102 530.331l0.105-0.994 32.918 3.459-0.105 0.994zM639.459 526.196l0.07-0.998 33.02 2.309-0.07 0.997zM639.712 522.127l0.035-1 33.08 1.156-0.035 1zM639.7 517h33.1v1h-33.1zM639.603 512.89l33.08-1.163 0.035 1-33.08 1.163zM639.29 508.85l33.017-2.326 0.07 0.998-33.017 2.326zM638.926 504.733l32.914-3.492 0.106 0.995-32.915 3.492zM638.376 500.666l32.779-4.591 0.139 0.99-32.78 4.59zM637.695 496.697l32.596-5.756 0.174 0.985-32.596 5.756zM636.832 492.601l32.382-6.852 0.207 0.979-32.382 6.851zM635.9 488.617l32.116-8.013 0.242 0.97-32.116 8.014zM634.695 484.678l31.82-9.119 0.275 0.961-31.82 9.12zM633.468 480.835l31.485-10.214 0.309 0.951-31.485 10.215zM632.114 476.95l31.104-11.317 0.342 0.94-31.104 11.317zM630.532 473.158l30.683-12.416 0.376 0.927-30.684 12.416zM628.947 469.383l30.243-13.455 0.407 0.914-30.244 13.455zM627.165 465.696l29.76-14.491 0.439 0.899-29.76 14.491zM625.182 461.995l29.234-15.524 0.47 0.884-29.235 15.524zM623.188 458.561l28.668-16.546 0.5 0.866-28.668 16.546zM621.016 455.038l28.076-17.53 0.53 0.848-28.076 17.53zM618.75 451.571l27.45-18.496 0.559 0.83-27.45 18.496zM616.385 448.264l26.771-19.466 0.588 0.81-26.771 19.465zM613.813 445.048l26.09-20.37 0.615 0.788-26.09 20.37zM611.297 441.903l25.355-21.28 0.643 0.766-25.355 21.28zM608.519 438.777l24.586-22.163 0.67 0.742-24.587 22.164zM605.638 435.948l23.806-22.998 0.695 0.72-23.806 22.997zM602.71 433.058l22.997-23.805 0.72 0.695-22.998 23.805zM599.665 430.226l22.16-24.586 0.743 0.669-22.16 24.587zM596.572 427.636l21.28-25.355 0.766 0.643-21.28 25.355zM593.297 425.114l20.383-26.08 0.788 0.616-20.383 26.08zM590.038 422.691l19.467-26.77 0.808 0.587-19.466 26.771zM586.58 420.358l18.533-27.427 0.829 0.56-18.533 27.427zM583.166 418.16l17.556-28.063 0.848 0.53-17.556 28.063zM579.544 416.051l16.56-28.658 0.866 0.5-16.56 28.658zM575.98 414.12l15.547-29.221 0.883 0.47-15.547 29.22zM572.312 412.312l14.518-29.747 0.898 0.439-14.517 29.747zM568.552 410.698l13.455-30.24 0.914 0.407-13.456 30.24zM564.805 409.156l12.406-30.687 0.927 0.375-12.406 30.687zM560.868 407.727l11.317-31.104 0.94 0.342-11.317 31.104zM557.088 406.417l10.214-31.485 0.952 0.309-10.215 31.485zM553.074 405.273l9.119-31.819 0.96 0.276-9.118 31.819zM549.2 404.24l8.013-32.117 0.97 0.242-8.013 32.117zM545.04 403.412l6.882-32.375 0.978 0.208-6.882 32.375zM541.102 402.667l5.756-32.597 0.985 0.174-5.756 32.597zM537.031 402.099l4.591-32.78 0.99 0.14-4.59 32.779zM532.954 401.684l3.46-32.918 0.994 0.104-3.46 32.918zM528.873 401.316l2.294-33.02 0.998 0.069-2.294 33.02zM524.775 401.178l1.163-33.08 0.999 0.035-1.163 33.08z" fill="#F2C05C" p-id="10352"></path><path d="M516.2 348.7h10v19.4h-10zM397.786 402.77l7.07-7.072 13.719 13.718-7.071 7.071zM352.3 514.7h19.4v10h-19.4zM399.347 636.069l13.717-13.72 7.072 7.071-13.717 13.72zM518.4 669.2h10v19.4h-10zM625.947 627.73l7.07-7.071 13.719 13.717-7.071 7.071zM672.8 512.5h19.4v10h-19.4zM624.419 407.815l13.72-13.717 7.07 7.072-13.72 13.717z" fill="#F2C05C" p-id="10353"></path><path d="M331.4 518.4l189.4 35v-35z" fill="#D6D6D6" p-id="10354"></path><path d="M331.4 518.4h189.4v-35.1z" fill="#8E8E8E" p-id="10355"></path><path d="M710.8 518.4l-189.4-35.1v35.1z" fill="#D6D6D6" p-id="10356"></path><path d="M710.8 518.4H521.4v35z" fill="#8E8E8E" p-id="10357"></path><path d="M409.7 631l124.5-99.8-12.4-12.4z" fill="#D6D6D6" p-id="10358"></path><path d="M409.7 631l112.1-112.2-12.4-12.4z" fill="#8E8E8E" p-id="10359"></path><path d="M634.4 406.3l-124.6 99.8 12.4 12.4z" fill="#D6D6D6" p-id="10360"></path><path d="M634.4 406.3L522.2 518.5l12.4 12.3z" fill="#8E8E8E" p-id="10361"></path><path d="M634.4 631l-99.8-124.6-12.4 12.4z" fill="#D6D6D6" p-id="10362"></path><path d="M634.4 631L522.2 518.8l-12.4 12.4z" fill="#8E8E8E" p-id="10363"></path><path d="M409.7 406.3l99.7 124.5 12.4-12.3z" fill="#D6D6D6" p-id="10364"></path><path d="M409.7 406.3l112.1 112.2 12.4-12.4z" fill="#8E8E8E" p-id="10365"></path><path d="M521.1 708.1l35.1-189.4h-35.1z" fill="#D6D6D6" p-id="10366"></path><path d="M521.1 708.1V518.7h-35z" fill="#8E8E8E" p-id="10367"></path><path d="M521.1 328.7l-35 189.4h35z" fill="#D6D6D6" p-id="10368"></path><path d="M521.1 328.7v189.4h35.1z" fill="#8E8E8E" p-id="10369"></path><path d="M626.7 289L483.3 501.9l41.4 18.8 105.7-232.8c-1.2-0.5-2.8-0.3-3.7 1.1z" fill="#F45E45" p-id="10370"></path><path d="M632.3 291.7c0.5-1.8-0.5-3.2-1.8-3.8L524.8 520.7l35.5 16.1 72-245.1z" fill="#DD4733" p-id="10371"></path><path d="M417.5 749.9l65.9-248 41.4 18.8-105.7 232.9c-1.2-0.7-2.1-2-1.6-3.7z" fill="#0EAA97" p-id="10372"></path><path d="M423.2 752.4c-1 1.6-2.7 1.8-4.1 1.1l105.7-232.8 35.5 16.1-137.1 215.6z" fill="#078E7B" p-id="10373"></path><path d="M480.985328 530.149668a42.2 42.2 0 1 0 81.614926-21.502649 42.2 42.2 0 1 0-81.614926 21.502649Z" fill="#05493E" p-id="10374"></path></svg>