<?xml version="1.0" standalone="no"?><!DOCTYPE svg PUBLIC "-//W3C//DTD SVG 1.1//EN" "http://www.w3.org/Graphics/SVG/1.1/DTD/svg11.dtd"><svg t="1707998949432" class="icon" viewBox="0 0 1024 1024" version="1.1" xmlns="http://www.w3.org/2000/svg" p-id="1476" xmlns:xlink="http://www.w3.org/1999/xlink" width="200" height="200"><path d="M592.7424 654.7968m-179.0976 0a179.0976 179.0976 0 1 0 358.1952 0 179.0976 179.0976 0 1 0-358.1952 0Z" fill="#FFBE0A" p-id="1477"></path><path d="M512.0512 922.5216c-226.8672 0-411.4432-184.576-411.4432-411.4432s184.576-411.4432 411.4432-411.4432 411.4432 184.576 411.4432 411.4432-184.576 411.4432-411.4432 411.4432z m0-751.2064c-187.3408 0-339.7632 152.4224-339.7632 339.7632s152.4224 339.7632 339.7632 339.7632 339.7632-152.4224 339.7632-339.7632-152.4224-339.7632-339.7632-339.7632z" fill="#34332E" p-id="1478"></path><path d="M679.7824 576.1024h-184.32c-19.8144 0-35.84-16.0256-35.84-35.84V348.1088c0-19.8144 16.0256-35.84 35.84-35.84s35.84 16.0256 35.84 35.84v156.3136h148.48c19.8144 0 35.84 16.0256 35.84 35.84s-16.0256 35.84-35.84 35.84z" fill="#34332E" p-id="1479"></path></svg>