<?xml version="1.0" standalone="no"?><!DOCTYPE svg PUBLIC "-//W3C//DTD SVG 1.1//EN" "http://www.w3.org/Graphics/SVG/1.1/DTD/svg11.dtd"><svg t="1708025382554" class="icon" viewBox="0 0 1070 1024" version="1.1" xmlns="http://www.w3.org/2000/svg" p-id="2495" xmlns:xlink="http://www.w3.org/1999/xlink" width="208.984375" height="200"><path d="M191.809046 1023.993337c-77.131758-0.139985-146.704324-46.755004-176.241167-118.00739-29.536844-71.252386-13.298579-153.423606 41.295587-208.017772l216.416874-216.696844c-38.775857-144.324578 10.218908-298.028153 125.286613-393.357967s275.210592-114.927719 409.876201-49.97466c10.918833 5.599402 18.33804 16.09828 20.157846 28.276978 1.819806 12.038714-2.239761 24.357397-11.058818 32.896485l-174.981302 175.261272 108.208437 108.208437 175.121287-175.121287c8.679073-8.679073 21.137741-12.738639 33.31644-10.638863 12.318684 1.959791 22.817562 9.798953 28.276978 20.997756 64.953059 134.66561 45.355153 294.808498-49.974659 409.876202-95.329813 115.067704-249.033389 164.062469-393.357967 125.286612l-216.976815 216.696845c-36.116141 35.27623-84.830935 54.734151-135.365535 54.314196z m450.751834-947.278777c-98.689454-0.139985-191.359552 47.454929-248.893404 127.666358-57.533852 80.211429-72.652237 183.240419-40.875632 276.750428 4.199551 13.438564 0.699925 28.136993-9.239013 38.215916l-232.795124 232.375169c-42.135498 45.215168-40.875632 115.627644 2.799701 159.302977 43.675333 43.675333 114.087809 44.935198 159.302977 2.799701l232.795124-232.795124c10.078923-9.938938 24.777352-13.438564 38.215917-9.239013 106.808587 36.256126 224.955962 10.778848 307.267166-66.35291 82.311204-77.131758 115.627644-193.179357 86.510756-302.227704l-132.98579 132.985789c-14.278474 14.418459-33.736395 22.397607-54.034226 22.397607s-39.755752-8.119132-54.034226-22.397607l-108.208437-108.208437c-14.418459-14.278474-22.397607-33.736395-22.397607-54.034226s8.119132-39.755752 22.397607-54.034226l132.985789-132.985789c-25.757248-6.719282-52.214421-10.218908-78.811578-10.218909z m0 0" fill="#2c2c2c" p-id="2496"></path></svg>